<svg xmlns="http://www.w3.org/2000/svg" xmlns:xlink="http://www.w3.org/1999/xlink" width="500" zoomAndPan="magnify" viewBox="0 0 375 374.999991" height="500" preserveAspectRatio="xMidYMid meet" version="1.0"><defs><g/><clipPath id="abaab44983"><path d="M 110 144 L 286 144 L 286 294.980469 L 110 294.980469 Z M 110 144 " clip-rule="nonzero"/></clipPath><clipPath id="c063e73df2"><path d="M 286 13.730469 L 328 13.730469 L 328 49 L 286 49 Z M 286 13.730469 " clip-rule="nonzero"/></clipPath><clipPath id="38ed92ad05"><path d="M 315 13.730469 L 337.367188 13.730469 L 337.367188 67 L 315 67 Z M 315 13.730469 " clip-rule="nonzero"/></clipPath><clipPath id="51920e2e15"><path d="M 10.367188 56 L 313 56 L 313 256 L 10.367188 256 Z M 10.367188 56 " clip-rule="nonzero"/></clipPath></defs><g clip-path="url(#abaab44983)"><path fill="#eb602f" d="M 110.703125 276.011719 C 128.523438 287.714844 149.835938 294.523438 172.746094 294.523438 C 235.265625 294.523438 285.949219 243.839844 285.949219 181.316406 C 285.949219 168.410156 283.78125 156.015625 279.800781 144.457031 C 252.382812 191.082031 202.15625 244.996094 110.703125 276.011719 " fill-opacity="1" fill-rule="nonzero"/></g><g clip-path="url(#c063e73df2)"><path fill="#00adef" d="M 286.640625 48.972656 L 315.636719 47.621094 L 327.453125 13.855469 Z M 286.640625 48.972656 " fill-opacity="1" fill-rule="nonzero"/></g><g clip-path="url(#38ed92ad05)"><path fill="#3871c1" d="M 327.453125 13.855469 L 315.636719 47.621094 L 337.457031 66.757812 Z M 327.453125 13.855469 " fill-opacity="1" fill-rule="nonzero"/></g><g clip-path="url(#51920e2e15)"><path fill="#00adef" d="M 206.101562 151.789062 L 195.886719 132.941406 L 175.453125 126.449219 L 212.726562 112.574219 Z M 267.511719 119.382812 C 247.292969 88.511719 212.40625 68.109375 172.746094 68.109375 C 110.222656 68.109375 59.539062 118.796875 59.539062 181.316406 C 59.539062 182.28125 59.554688 183.238281 59.578125 184.191406 C 34.53125 200.128906 10.339844 205.503906 10.339844 205.503906 C 33.941406 204.519531 60.855469 198.632812 60.855469 198.632812 C 93.460938 191.558594 145.066406 175.285156 191.636719 138.546875 C 191.636719 138.546875 152.261719 187.644531 65.9375 218.917969 C 69.09375 227.878906 73.34375 236.328125 78.53125 244.09375 C 64.519531 249.53125 50.679688 253.054688 39.582031 255.292969 C 109.074219 253.425781 246.835938 226.996094 312.050781 56.550781 C 312.050781 56.550781 296.820312 87.757812 267.511719 119.382812 " fill-opacity="1" fill-rule="nonzero"/></g><g fill="#eb602f" fill-opacity="1"><g transform="translate(99.701868, 352.175143)"><g><path d="M 38.296875 3.65625 C 37.242188 4.945312 35.957031 5.929688 34.4375 6.609375 C 32.914062 7.285156 31.25 7.625 29.4375 7.625 C 27.695312 7.625 26.117188 7.398438 24.703125 6.953125 C 23.285156 6.503906 21.859375 5.757812 20.421875 4.71875 C 18.992188 3.675781 17.394531 2.222656 15.625 0.359375 C 12.882812 -0.0859375 10.445312 -1.0625 8.3125 -2.5625 C 6.175781 -4.070312 4.507812 -5.972656 3.3125 -8.265625 C 2.125 -10.554688 1.53125 -13.066406 1.53125 -15.796875 C 1.53125 -18.929688 2.289062 -21.75 3.8125 -24.25 C 5.332031 -26.75 7.425781 -28.703125 10.09375 -30.109375 C 12.757812 -31.523438 15.757812 -32.234375 19.09375 -32.234375 C 22.4375 -32.234375 25.441406 -31.523438 28.109375 -30.109375 C 30.773438 -28.703125 32.867188 -26.75 34.390625 -24.25 C 35.910156 -21.75 36.671875 -18.929688 36.671875 -15.796875 C 36.671875 -12.242188 35.695312 -9.101562 33.75 -6.375 C 31.8125 -3.65625 29.203125 -1.710938 25.921875 -0.546875 C 26.523438 0.117188 27.117188 0.585938 27.703125 0.859375 C 28.285156 1.128906 28.925781 1.265625 29.625 1.265625 C 31.394531 1.265625 32.988281 0.523438 34.40625 -0.953125 Z M 10.5625 -15.796875 C 10.5625 -14.023438 10.9375 -12.453125 11.6875 -11.078125 C 12.445312 -9.710938 13.472656 -8.648438 14.765625 -7.890625 C 16.054688 -7.140625 17.5 -6.765625 19.09375 -6.765625 C 20.695312 -6.765625 22.144531 -7.140625 23.4375 -7.890625 C 24.726562 -8.648438 25.75 -9.710938 26.5 -11.078125 C 27.257812 -12.453125 27.640625 -14.023438 27.640625 -15.796875 C 27.640625 -17.578125 27.257812 -19.148438 26.5 -20.515625 C 25.75 -21.890625 24.726562 -22.953125 23.4375 -23.703125 C 22.144531 -24.453125 20.695312 -24.828125 19.09375 -24.828125 C 17.5 -24.828125 16.054688 -24.453125 14.765625 -23.703125 C 13.472656 -22.953125 12.445312 -21.890625 11.6875 -20.515625 C 10.9375 -19.148438 10.5625 -17.578125 10.5625 -15.796875 Z M 10.5625 -15.796875 "/></g></g></g><g fill="#eb602f" fill-opacity="1"><g transform="translate(137.902483, 352.175143)"><g><path d="M 14.265625 0.625 C 11.710938 0.625 9.226562 0.3125 6.8125 -0.3125 C 4.40625 -0.945312 2.453125 -1.789062 0.953125 -2.84375 L 3.890625 -9.4375 C 5.296875 -8.5 6.929688 -7.742188 8.796875 -7.171875 C 10.671875 -6.609375 12.507812 -6.328125 14.3125 -6.328125 C 17.75 -6.328125 19.46875 -7.179688 19.46875 -8.890625 C 19.46875 -9.796875 18.976562 -10.46875 18 -10.90625 C 17.019531 -11.34375 15.445312 -11.800781 13.28125 -12.28125 C 10.894531 -12.789062 8.90625 -13.335938 7.3125 -13.921875 C 5.71875 -14.515625 4.347656 -15.457031 3.203125 -16.75 C 2.054688 -18.039062 1.484375 -19.785156 1.484375 -21.984375 C 1.484375 -23.910156 2.007812 -25.648438 3.0625 -27.203125 C 4.125 -28.753906 5.695312 -29.976562 7.78125 -30.875 C 9.875 -31.78125 12.441406 -32.234375 15.484375 -32.234375 C 17.566406 -32.234375 19.613281 -32 21.625 -31.53125 C 23.644531 -31.070312 25.421875 -30.390625 26.953125 -29.484375 L 24.203125 -22.84375 C 21.191406 -24.46875 18.269531 -25.28125 15.4375 -25.28125 C 13.664062 -25.28125 12.375 -25.015625 11.5625 -24.484375 C 10.75 -23.960938 10.34375 -23.28125 10.34375 -22.4375 C 10.34375 -21.59375 10.820312 -20.957031 11.78125 -20.53125 C 12.75 -20.113281 14.300781 -19.679688 16.4375 -19.234375 C 18.84375 -18.722656 20.835938 -18.171875 22.421875 -17.578125 C 24.003906 -16.992188 25.375 -16.0625 26.53125 -14.78125 C 27.6875 -13.507812 28.265625 -11.773438 28.265625 -9.578125 C 28.265625 -7.679688 27.738281 -5.960938 26.6875 -4.421875 C 25.632812 -2.890625 24.050781 -1.664062 21.9375 -0.75 C 19.832031 0.164062 17.273438 0.625 14.265625 0.625 Z M 14.265625 0.625 "/></g></g></g><g fill="#eb602f" fill-opacity="1"><g transform="translate(167.117374, 352.175143)"><g><path d="M 24.34375 -6.140625 L 10.96875 -6.140625 L 8.484375 0 L -0.625 0 L 13.328125 -31.609375 L 22.125 -31.609375 L 36.125 0 L 26.828125 0 Z M 21.71875 -12.734375 L 17.65625 -22.84375 L 13.59375 -12.734375 Z M 21.71875 -12.734375 "/></g></g></g><g fill="#eb602f" fill-opacity="1"><g transform="translate(202.60873, 352.175143)"><g><path d="M 12.109375 -24.703125 L 12.109375 -17.75 L 26.0625 -17.75 L 26.0625 -10.84375 L 12.109375 -10.84375 L 12.109375 0 L 3.15625 0 L 3.15625 -31.609375 L 27.953125 -31.609375 L 27.953125 -24.703125 Z M 12.109375 -24.703125 "/></g></g></g><g fill="#eb602f" fill-opacity="1"><g transform="translate(231.597853, 352.175143)"><g><path d="M 28.53125 -6.90625 L 28.53125 0 L 3.15625 0 L 3.15625 -31.609375 L 27.953125 -31.609375 L 27.953125 -24.703125 L 12.015625 -24.703125 L 12.015625 -19.375 L 26.0625 -19.375 L 26.0625 -12.6875 L 12.015625 -12.6875 L 12.015625 -6.90625 Z M 28.53125 -6.90625 "/></g></g></g></svg>