<?xml version="1.0" encoding="utf-8"?>
<!-- Generator: Adobe Illustrator 16.0.0, SVG Export Plug-In . SVG Version: 6.00 Build 0)  -->
<!DOCTYPE svg PUBLIC "-//W3C//DTD SVG 1.1//EN" "http://www.w3.org/Graphics/SVG/1.1/DTD/svg11.dtd">
<svg version="1.1" id="Layer_1" xmlns="http://www.w3.org/2000/svg" xmlns:xlink="http://www.w3.org/1999/xlink" x="0px" y="0px"
	 width="152px" height="152px" viewBox="0 0 152 152" enable-background="new 0 0 152 152" xml:space="preserve">
<path fill="#BEABA5" d="M152,120c0,17.601-14.4,32-32,32H32C14.4,152,0,137.6,0,120V32C0,14.4,14.4,0,32,0h88c17.6,0,32,14.4,32,32
	V120z"/>
<path fill="#7A574A" d="M140,76c0,35.346-28.654,64-64,64s-64-28.653-64-64c0-35.346,28.654-64,64-64S140,40.654,140,76"/>
<path fill="#384850" d="M118.715,109.449c-17.312-8.236-25.547-11.123-27.502-11.768c-0.373-1.189-0.705-4.31-0.836-6.387
	l-0.031-0.496l-0.414-0.276c-0.758-0.501-2.112-0.754-3.194-0.88c2.166-4.086,4.567-7.584,4.61-7.649
	c2.041-3.198,2.162-8.914,2.15-10.595c1.217-1.202,1.352-2.401,1.363-2.546l0.008-0.104l-0.012-0.104
	c-0.311-2.458,0.674-5.522,0.684-5.552l0.049-0.253c0.041-0.715-0.133-1.283-0.514-1.687c-0.091-0.097-0.193-0.181-0.303-0.253
	c3.783-13.474,2.271-16.633,1.318-17.37c-0.168-0.145-0.394-0.276-0.639-0.393c0.139-0.633,0.036-1.375-0.174-2.01
	c-0.792-2.088-4.1-5.059-4.684-5.572c-6.871-7.782-26.992-7.354-26.988-7.353l-1.21,0.073l0.266,1.193
	c0.144,0.642-1.447,3.068-3.389,5.148c-1.558,1.948-1.652,4.131-1.655,4.223l-0.002,0.055l0.004,0.057
	c0.249,3.238-2.674,8.936-2.704,8.994l-0.098,0.191l-0.012,0.214c-0.172,3.217,1.594,9.871,2.334,12.495
	c-0.155,0.095-0.294,0.218-0.41,0.366c-0.589,0.745-0.37,1.823-0.321,2.032l0.03,0.1c0.812,2.306,0.633,5.334,0.629,5.427
	c0,1.168,0.829,2.139,1.358,2.64c-0.168,7.048,2.075,10.461,2.196,10.64c1.327,1.802,3.438,5.572,4.541,7.594
	c-0.862,0.117-1.949,0.348-2.96,0.802l-0.575,0.259l-0.015,0.631c-0.001,0.035-0.085,3.35-0.91,6.396
	c-2.512,0.924-14.432,5.394-27.387,11.7c-0.641,0.238-5.863,2.275-7.706,6.005c0.234,0.299,0.463,0.601,0.702,0.895
	c0.244,0.3,0.505,0.582,0.754,0.878c0.876-3.673,6.917-5.891,6.98-5.912l0.099-0.043c14.436-7.031,27.586-11.77,27.717-11.816
	l0.475-0.17l0.146-0.483c0.788-2.623,1.03-5.468,1.101-6.733c1.506-0.521,3.097-0.527,3.182-0.527l1.677,0.012l-0.785-1.48
	c-0.141-0.267-3.484-6.553-5.398-9.152c-0.021-0.031-2.078-3.242-1.82-9.897l0.02-0.525l-0.42-0.314
	c-0.339-0.254-0.972-0.924-0.973-1.33c0.008-0.14,0.206-3.407-0.72-6.093c-0.004-0.026-0.008-0.058-0.012-0.09l1.533,0.369
	l-0.499-1.667c-0.027-0.09-2.662-8.939-2.573-12.693c0.553-1.107,3.049-6.327,2.823-9.79c0.023-0.269,0.184-1.716,1.164-2.947
	c1.086-1.16,3.303-3.715,3.783-5.725c3.937,0.029,19.188,0.551,24.567,6.723l0.097,0.096c1.358,1.184,3.694,3.539,4.163,4.771
	c0.092,0.286,0.143,0.67,0.123,0.861l-0.641,0.321l0.508,1.554l0.496,0.153c0.355,0.109,0.799,0.29,0.877,0.338l0.039,0.04
	c0.158,0.256,1.59,3.09-2.235,16.306l-0.503,1.711l1.521-0.409c-0.228,0.761-0.998,3.567-0.725,6.078
	c-0.053,0.214-0.258,0.827-1.008,1.455l-0.373,0.314l0.017,0.486c0.002,0.067,0.198,6.745-1.81,9.89
	c-0.123,0.18-3.043,4.433-5.416,9.188l-0.693,1.39l1.553,0.056c0.953,0.034,2.475,0.208,3.297,0.487
	c0.123,1.688,0.481,5.705,1.166,6.963l0.195,0.361l0.393,0.119c0.08,0.023,8.177,2.523,27.771,11.844
	c0.063,0.021,6.107,2.239,6.982,5.912l-0.192,0.223c-12.313,14.047-30.08,22.104-48.739,22.104c-18.658,0-36.424-8.056-48.736-22.1
	C39.001,131.229,56.466,140,75.999,140c20.057,0,37.95-9.23,49.686-23.67c0.24-0.295,0.47-0.598,0.705-0.896
	C124.471,111.556,118.909,109.513,118.715,109.449"/>
<path fill="#FFFFFF" d="M75.999,139.533c18.66,0,36.425-8.057,48.74-22.104l0.192-0.223c-0.876-3.673-6.92-5.891-6.983-5.912
	c-19.595-9.32-27.691-11.82-27.771-11.844l-0.393-0.119l-0.195-0.361c-0.686-1.258-1.043-5.274-1.166-6.963
	c-0.822-0.279-2.344-0.453-3.297-0.487l-1.553-0.056l0.694-1.39c2.372-4.756,5.293-9.009,5.416-9.188
	c2.006-3.145,1.812-9.822,1.81-9.89l-0.017-0.486l0.373-0.314c0.75-0.628,0.955-1.241,1.006-1.455
	c-0.272-2.511,0.498-5.317,0.726-6.078l-1.521,0.409l0.502-1.711c3.826-13.216,2.395-16.05,2.237-16.306l-0.04-0.04
	c-0.077-0.048-0.521-0.229-0.876-0.338l-0.496-0.153l-0.509-1.554l0.641-0.321c0.02-0.191-0.031-0.575-0.123-0.861
	c-0.469-1.233-2.805-3.588-4.164-4.772l-0.096-0.096c-5.379-6.172-20.63-6.694-24.568-6.723c-0.479,2.01-2.696,4.565-3.782,5.725
	c-0.98,1.231-1.141,2.678-1.164,2.947c0.226,3.463-2.27,8.683-2.823,9.79c-0.089,3.754,2.546,12.603,2.573,12.693l0.499,1.667
	l-1.533-0.369c0.004,0.032,0.008,0.064,0.012,0.09c0.925,2.686,0.728,5.953,0.719,6.093c0.002,0.406,0.635,1.076,0.974,1.33
	l0.42,0.314l-0.021,0.525c-0.257,6.655,1.8,9.866,1.821,9.897c1.914,2.6,5.257,8.886,5.398,9.152l0.785,1.48l-1.677-0.012
	c-0.085,0-1.676,0.007-3.182,0.527c-0.071,1.266-0.314,4.11-1.102,6.733l-0.145,0.483l-0.475,0.17
	c-0.132,0.047-13.281,4.785-27.718,11.816l-0.098,0.043c-0.064,0.021-6.104,2.239-6.98,5.911c0.064,0.077,0.13,0.151,0.194,0.228
	C39.575,131.476,57.34,139.533,75.999,139.533"/>
<path fill="#384850" d="M76,140C40.71,140,12,111.29,12,76C12,40.71,40.71,12,76,12c35.29,0,64,28.71,64,63.999
	C140,111.29,111.29,140,76,140 M76,14.932c-33.674,0-61.069,27.395-61.069,61.068S42.326,137.068,76,137.068
	S137.069,109.672,137.069,76S109.674,14.932,76,14.932"/>
</svg>
